<?xml version="1.0" encoding="utf-8"?>
<!-- Generator: Adobe Illustrator 23.1.1, SVG Export Plug-In . SVG Version: 6.00 Build 0)  -->
<svg version="1.1" id="Calque_1" xmlns="http://www.w3.org/2000/svg" xmlns:xlink="http://www.w3.org/1999/xlink" x="0px" y="0px"
	 viewBox="0 0 446.9 103.1" style="enable-background:new 0 0 446.9 103.1;" xml:space="preserve">
<style type="text/css">
	.st0{fill:#00AFDB;}
	.st1{fill:#0096BF;}
	.st2{fill:#007FA2;}
	.st3{fill:#1D1D1B;}
</style>
<path class="st0" d="M50.4,44.2c-3.4,0-6.2,2.8-6.2,6.2s2.8,6.2,6.2,6.2c3.4,0,6.2-2.8,6.2-6.2S53.8,44.2,50.4,44.2"/>
<path class="st1" d="M38.7,50.4c0-1.5-1.3-2.8-2.8-2.8s-2.8,1.3-2.8,2.8s1.3,2.8,2.8,2.8C37.5,53.2,38.7,52,38.7,50.4"/>
<path class="st1" d="M64.9,47.6c-1.5,0-2.8,1.3-2.8,2.8s1.3,2.8,2.8,2.8s2.8-1.3,2.8-2.8S66.5,47.6,64.9,47.6"/>
<path class="st1" d="M40.2,57.9c-0.7,0-1.4,0.3-2,0.8c-0.6,0.5-0.8,1.2-0.8,2c0,0.7,0.3,1.4,0.8,2c0.5,0.5,1.2,0.8,2,0.8
	c0.7,0,1.4-0.3,2-0.8c0.5-0.5,0.8-1.2,0.8-2c0-0.7-0.3-1.4-0.8-2C41.6,58.2,40.9,57.9,40.2,57.9"/>
<path class="st1" d="M60.7,43c0.7,0,1.4-0.3,2-0.8c0.5-0.5,0.8-1.2,0.8-2c0-0.7-0.3-1.4-0.8-2c-0.5-0.5-1.2-0.8-2-0.8
	c-0.7,0-1.4,0.3-2,0.8c-0.5,0.5-0.8,1.2-0.8,2c0,0.7,0.3,1.5,0.8,2S59.9,43,60.7,43"/>
<path class="st1" d="M40.2,43c0.7,0,1.4-0.3,2-0.8c1.1-1.1,1.1-2.9,0-4c-0.5-0.5-1.2-0.8-2-0.8c-0.7,0-1.4,0.3-2,0.8
	c-0.5,0.5-0.8,1.2-0.8,2c0,0.7,0.3,1.5,0.8,2S39.4,43,40.2,43"/>
<path class="st1" d="M60.7,57.9c-0.7,0-1.4,0.3-2,0.8c-0.5,0.5-0.8,1.2-0.8,2c0,0.7,0.3,1.4,0.8,2c0.5,0.5,1.2,0.8,2,0.8
	c0.8,0,1.4-0.3,2-0.8c0.5-0.5,0.8-1.2,0.8-2c0-0.7-0.3-1.4-0.8-2C62.1,58.2,61.4,57.9,60.7,57.9"/>
<path class="st1" d="M50.4,33.1c-1.5,0-2.8,1.3-2.8,2.8s1.3,2.8,2.8,2.8s2.8-1.3,2.8-2.8S52,33.1,50.4,33.1"/>
<path class="st1" d="M50.4,62.2c-1.5,0-2.8,1.3-2.8,2.8s1.3,2.8,2.8,2.8s2.8-1.3,2.8-2.8S52,62.2,50.4,62.2"/>
<path class="st2" d="M74,48.9c-0.9,0-1.6,0.7-1.6,1.6s0.7,1.6,1.6,1.6s1.6-0.7,1.6-1.6C75.6,49.6,74.9,48.9,74,48.9"/>
<path class="st2" d="M50.4,72.5c-0.9,0-1.6,0.7-1.6,1.6c0,0.9,0.7,1.6,1.6,1.6c0.9,0,1.6-0.7,1.6-1.6C52,73.2,51.3,72.5,50.4,72.5"
	/>
<path class="st2" d="M50.4,28.4c0.9,0,1.6-0.7,1.6-1.6s-0.7-1.6-1.6-1.6c-0.9,0-1.6,0.7-1.6,1.6S49.5,28.4,50.4,28.4"/>
<path class="st2" d="M65.9,65.9c-0.3,0.3-0.5,0.7-0.5,1.1c0,0.4,0.2,0.8,0.5,1.1c0.3,0.3,0.7,0.5,1.1,0.5s0.8-0.2,1.1-0.5
	c0.3-0.3,0.5-0.7,0.5-1.1s-0.2-0.8-0.5-1.1c-0.3-0.3-0.7-0.5-1.1-0.5C66.6,65.5,66.2,65.7,65.9,65.9"/>
<path class="st2" d="M66,32.8c-0.3,0.3-0.5,0.7-0.5,1.1s0.2,0.8,0.5,1.1c0.3,0.3,0.7,0.5,1.1,0.5s0.8-0.2,1.1-0.5
	c0.3-0.3,0.5-0.7,0.5-1.1s-0.2-0.8-0.5-1.1c-0.3-0.3-0.7-0.5-1.1-0.5S66.3,32.4,66,32.8"/>
<path class="st2" d="M72.2,57.9c-0.2,0-0.4,0-0.7,0.1c-0.6,0.2-1,0.8-1,1.4c0,0.9,0.7,1.6,1.5,1.6c0.2,0,0.5,0,0.7-0.1
	c0.6-0.2,1-0.8,1-1.4C73.8,58.7,73.1,57.9,72.2,57.9"/>
<path class="st2" d="M59.4,30.3c0.2,0,0.4,0,0.7-0.1c0.6-0.2,1-0.8,1-1.4c0-0.4-0.1-0.8-0.4-1.1c-0.3-0.3-0.7-0.5-1.1-0.5
	c-0.2,0-0.4,0-0.7,0.1c-0.6,0.2-1,0.8-1,1.4C57.8,29.5,58.5,30.2,59.4,30.3"/>
<path class="st2" d="M58.8,70.8c-0.2,0.1-0.3,0.2-0.5,0.3c-0.3,0.3-0.5,0.7-0.5,1.1c0,0.4,0.1,0.8,0.4,1.1c0.4,0.5,1.2,0.6,1.8,0.4
	c0.2-0.1,0.3-0.2,0.5-0.3c0.6-0.6,0.7-1.6,0.1-2.2C60.1,70.8,59.4,70.5,58.8,70.8"/>
<path class="st2" d="M72.8,42.9c0.2-0.1,0.3-0.2,0.5-0.3c0.6-0.6,0.7-1.6,0.1-2.2C73,40,72.2,39.8,71.6,40c-0.2,0.1-0.3,0.2-0.5,0.3
	C70.5,41,70.4,42,71,42.6C71.5,43,72.2,43.1,72.8,42.9"/>
<path class="st2" d="M26.8,48.9c0.9,0,1.6,0.7,1.6,1.6s-0.7,1.6-1.6,1.6s-1.6-0.7-1.6-1.6C25.2,49.6,25.9,48.9,26.8,48.9"/>
<path class="st2" d="M34.9,65.9c0.3,0.3,0.5,0.7,0.5,1.1c0,0.4-0.2,0.8-0.5,1.1c-0.3,0.3-0.7,0.5-1.1,0.5c-0.4,0-0.8-0.2-1.1-0.5
	c-0.3-0.2-0.5-0.6-0.5-1c0-0.4,0.2-0.8,0.5-1.1c0.3-0.3,0.7-0.5,1.1-0.5C34.2,65.5,34.6,65.7,34.9,65.9"/>
<path class="st2" d="M34.9,32.8c0.3,0.3,0.5,0.7,0.5,1.1s-0.2,0.8-0.5,1.1c-0.3,0.3-0.7,0.4-1.2,0.4c-0.4,0-0.8-0.2-1.1-0.5
	c-0.3-0.2-0.4-0.6-0.4-1s0.2-0.8,0.5-1.1c0.2-0.3,0.6-0.5,1-0.5C34.2,32.2,34.6,32.4,34.9,32.8"/>
<path class="st2" d="M28.6,57.9c0.2,0,0.4,0,0.7,0.1c0.6,0.2,1,0.8,1,1.4c0,0.9-0.7,1.6-1.5,1.6c-0.2,0-0.4,0-0.7-0.1
	c-0.6-0.2-1-0.8-1-1.4C27,58.7,27.7,57.9,28.6,57.9"/>
<path class="st2" d="M41.5,30.3c-0.2,0-0.4,0-0.7-0.1c-0.6-0.2-1-0.8-1-1.4c0-0.4,0.1-0.8,0.4-1.1c0.3-0.3,0.7-0.5,1.1-0.5
	c0.2,0,0.4,0,0.7,0.1c0.6,0.2,1,0.8,1,1.4C43,29.5,42.3,30.2,41.5,30.3"/>
<path class="st2" d="M42,70.8c0.2,0.1,0.3,0.2,0.5,0.3c0.3,0.3,0.5,0.7,0.5,1.1c0,0.4-0.1,0.8-0.4,1.1c-0.4,0.5-1.2,0.6-1.8,0.4
	c-0.2-0.1-0.3-0.2-0.5-0.3c-0.6-0.6-0.7-1.6-0.1-2.2C40.7,70.8,41.4,70.5,42,70.8"/>
<path class="st2" d="M28,42.9c-0.2-0.1-0.3-0.2-0.5-0.3c-0.6-0.6-0.7-1.6-0.1-2.2c0.4-0.5,1.2-0.6,1.8-0.4c0.2,0.1,0.3,0.2,0.5,0.3
	c0.6,0.6,0.7,1.6,0.1,2.2C29.3,43,28.6,43.1,28,42.9"/>
<path class="st3" d="M100.7,56.2c0,4.9-2.3,5.9-6,5.9s-6-1-6-5.9V41.8h-1.5v14.5c0,6.4,4,7.3,7.5,7.3s7.5-0.8,7.5-7.3V41.8h-1.5
	V56.2z"/>
<polygon class="st3" points="119.7,60 107.5,41.8 106.4,41.8 106.4,63.3 108,63.3 107.9,45 120.1,63.3 121.2,63.3 121.2,41.8 
	119.6,41.8 "/>
<rect x="126.2" y="41.8" class="st3" width="1.5" height="21.6"/>
<polygon class="st3" points="139.5,60.8 133,41.8 131.3,41.8 139,63.5 140,63.5 147.7,41.8 146,41.8 "/>
<polygon class="st3" points="150.7,63.3 162.9,63.3 162.9,61.9 152.2,61.9 152.2,52.8 161.9,52.8 161.9,51.4 152.2,51.4 152.2,43.1 
	162.9,43.1 162.9,41.8 150.7,41.8 "/>
<path class="st3" d="M179,47.8c0,2.9-0.8,4.5-4.8,4.5h-5.8v-9.1h5.8C178.2,43.1,179,44.8,179,47.8 M180.5,47.8c0-3.6-1.1-6-6.7-6
	h-6.9v21.6h1.5v-9.7h5.4c0.3,0,0.6,0,0.9,0l5.1,9.7h1.8l-5.3-9.9C180,52.8,180.5,50.3,180.5,47.8"/>
<path class="st3" d="M190.9,51.4c-4.5-0.5-5.7-1-5.7-4.1c0-1.9,0.6-4.3,5.7-4.3c2,0,3.4,0.2,5,0.8l0.4,0.2v-1.5l-0.2-0.1
	c-1.4-0.6-3.1-0.8-5.3-0.8c-5.9,0-7.1,3.1-7.1,5.7c0,4.3,2.1,5,6.8,5.5c4.8,0.6,5.5,1.1,5.5,4.4c0,3.2-2.1,4.8-6.4,4.8
	c-2.6,0-4.2-0.5-5.5-1l-0.4-0.2v1.5l0.2,0.1c1.4,0.5,3.9,1,5.7,1c3,0,7.9-0.8,7.9-6.2C197.6,52.4,195.2,51.9,190.9,51.4"/>
<rect x="202" y="41.8" class="st3" width="1.5" height="21.6"/>
<polygon class="st3" points="207.4,43.1 213.5,43.1 213.5,63.3 215,63.3 215,43.1 221.1,43.1 221.1,41.8 207.4,41.8 "/>
<polygon class="st3" points="235.1,37 232.6,37 229,40.2 230.4,40.2 "/>
<polygon class="st3" points="236.7,43.1 236.7,41.8 224.4,41.8 224.4,63.3 236.7,63.3 236.7,61.9 225.9,61.9 225.9,52.8 235.6,52.8 
	235.6,51.4 225.9,51.4 225.9,43.1 "/>
<path class="st2" d="M253,41.3c2.5,0,4.7,0.5,6.2,1.1v4.1c-2.7-1.1-4.4-1.4-6.2-1.4c-3.5,0-4.7,3.3-4.7,7.5c0,4.2,1.2,7.5,4.7,7.5
	c1.8,0,3.4-0.3,6.2-1.4v4.1c-1.5,0.6-3.6,1.1-6.2,1.1c-6.7,0-8.8-5.1-8.8-11.3C244.2,46.4,246.4,41.3,253,41.3"/>
<path class="st2" d="M270.7,45.1c-3.8,0-4.3,3.5-4.3,7.5s0.5,7.5,4.3,7.5c3.8,0,4.3-3.5,4.3-7.5S274.4,45.1,270.7,45.1 M273,40.2
	l-2.1-1.4l-2.7,1.4h-2.8l3.8-2.8h3.1l3.4,2.8H273z M270.7,63.8c-7.4,0-8.4-5.6-8.4-11.3c0-5.7,1-11.3,8.4-11.3s8.4,5.6,8.4,11.3
	C279.1,58.2,278.1,63.8,270.7,63.8"/>
<polygon class="st2" points="290.2,45.6 290.2,63.4 286.2,63.4 286.2,45.6 280.8,45.6 280.8,41.8 295.7,41.8 295.7,45.6 "/>
<polygon class="st2" points="311.2,54.1 302.6,54.1 302.6,59.5 312.1,59.5 312.1,63.4 298.6,63.4 298.6,41.8 312.1,41.8 312.1,45.6 
	302.6,45.6 302.6,50.3 311.2,50.3 "/>
<path class="st2" d="M326.3,59.5h2.5c3.9,0,5.1-2.9,5.1-7s-1.2-7-5.1-7h-2.5V59.5z M322.3,63.4V41.8h6.4c7.3,0,9.3,4.7,9.3,10.8
	c0,6.2-2.1,10.8-9.3,10.8L322.3,63.4L322.3,63.4z"/>
<path class="st2" d="M340.6,48.9c0,0,1.4-2.9,0.8-7.2h3.8c-0.1,4.5-3,7.2-3,7.2H340.6z"/>
<path class="st2" d="M352.7,48.4l-1.8,5.7h3.6L352.7,48.4z M343.6,63.4l7.7-22.1h2.8l7.7,22.1h-4.3l-1.8-5.5h-6l-1.7,5.5H343.6z"/>
<polygon class="st2" points="363.4,63.4 363.4,60.8 373.5,45.6 363.9,45.6 363.9,41.8 379,41.8 379,44.3 368.8,59.5 379.4,59.5 
	379.4,63.4 "/>
<path class="st2" d="M395.3,56V41.8h4v14.6c0,6.4-5.3,7.5-8,7.5s-8-1-8-7.5V41.8h4V56c0,3.6,2.6,4,4,4S395.3,59.8,395.3,56"/>
<path class="st2" d="M407.1,51h3.6c2.5,0,2.9-1.2,2.9-2.7s-0.4-2.7-2.9-2.7h-3.6V51z M407.1,63.4h-4V41.8h7.2c5.7,0,7.5,2.5,7.5,6.5
	c0,2.7-0.8,4.7-3.2,5.8c0.4,0.9,1,1.9,1.5,2.8c1,2,2.5,4.8,3.4,6.5h-4.8l-4.2-8.5h-3.4V63.4z"/>
</svg>
